<svg width="139" height="32" viewBox="0 0 139 32" fill="none" xmlns="http://www.w3.org/2000/svg">
<g clip-path="url(#clip0_60_1712)">
<path d="M125.967 15.9998L122.878 21.3332H116.685L113.588 15.9998L116.685 10.6665H122.878L125.967 15.9998Z" fill="black"/>
<path d="M115.143 23.9998L112.04 18.6665L111.269 17.3332L110.492 16.0065L113.588 10.6665H104.299L101.203 15.9998L105.847 24.0065L107.395 26.6665L110.492 31.9998H119.788L115.143 23.9998Z" fill="black"/>
<path d="M133.708 7.99316L129.064 15.9932V15.9998L125.974 21.3332L124.426 23.9998H118.233L122.878 31.9998H129.064L138.353 15.9998L133.708 7.99316Z" fill="black"/>
<path d="M129.064 0H110.492L105.847 8H124.426L127.515 13.3333L132.16 5.33333L129.064 0Z" fill="black"/>
<path d="M29.2416 0H21.199V12H8.04261V0H0V31.9933H8.04261V19.4533H21.199V31.9933H29.2416V0Z" fill="black"/>
<path d="M37.4653 31.9933V0H62.5046V7.27333H45.5079V12H58.4833V19.4533H45.5079V24.9067H63.2352V31.9933H37.4653Z" fill="black"/>
<path d="M91.6926 19.66C93.4955 18.9267 94.923 17.66 95.9619 15.86C97.0074 14.0667 97.5302 12.22 97.5302 10.3333C97.5302 7.28667 96.6589 4.8 94.9297 2.88C93.2006 0.96 90.4058 0 86.5453 0H70.5405V32H78.5898V20.7067H83.2613L87.5774 28.7067L89.1994 31.6933L89.3602 32H98.6896L91.6926 19.66ZM86.0896 14.1267H78.5898V6.58H86.0896C87.3764 6.58 88.3013 6.94 88.8643 7.66C89.4339 8.37333 89.7154 9.26667 89.7154 10.3333C89.7154 12.86 88.509 14.1267 86.0896 14.1267Z" fill="black"/>
</g>
<defs>
<clipPath id="clip0_60_1712">
<rect width="138.353" height="32" fill="white"/>
</clipPath>
</defs>
</svg>
